<mxfile host="app.diagrams.net" modified="2023-02-22T07:57:02.512Z" agent="5.0 (Macintosh; Intel Mac OS X 10_15_7) AppleWebKit/537.36 (KHTML, like Gecko) Chrome/110.0.0.0 Safari/537.36" etag="VW8UXG-WQUBnkyEs4jEp" version="20.8.22" type="github">
  <diagram name="第 1 页" id="FYhoj1h-JNWZl3x2KIMa">
    <mxGraphModel dx="1420" dy="753" grid="1" gridSize="10" guides="1" tooltips="1" connect="1" arrows="1" fold="1" page="1" pageScale="1" pageWidth="827" pageHeight="1169" math="0" shadow="0">
      <root>
        <mxCell id="0" />
        <mxCell id="1" parent="0" />
        <mxCell id="ITeaCI7Y9Sv6FgaVSYBG-2" value="58.23.243.27网关" style="whiteSpace=wrap;html=1;" vertex="1" parent="1">
          <mxGeometry x="20" y="240" width="286" height="80" as="geometry" />
        </mxCell>
        <mxCell id="ITeaCI7Y9Sv6FgaVSYBG-4" value="" style="whiteSpace=wrap;html=1;fillColor=#f8cecc;strokeColor=#b85450;movable=1;resizable=1;rotatable=1;deletable=1;editable=1;locked=0;connectable=1;" vertex="1" parent="1">
          <mxGeometry x="60" y="420" width="690" height="450" as="geometry" />
        </mxCell>
        <mxCell id="ITeaCI7Y9Sv6FgaVSYBG-1" value="192.168.14.11" style="whiteSpace=wrap;html=1;" vertex="1" parent="1">
          <mxGeometry x="230" y="650" width="370" height="180" as="geometry" />
        </mxCell>
        <mxCell id="ITeaCI7Y9Sv6FgaVSYBG-3" value="Nginx&lt;br&gt;" style="rounded=1;whiteSpace=wrap;html=1;" vertex="1" parent="1">
          <mxGeometry x="355" y="510" width="120" height="60" as="geometry" />
        </mxCell>
        <mxCell id="ITeaCI7Y9Sv6FgaVSYBG-5" value="用户" style="ellipse;whiteSpace=wrap;html=1;aspect=fixed;" vertex="1" parent="1">
          <mxGeometry x="680" y="250" width="60" height="60" as="geometry" />
        </mxCell>
        <mxCell id="ITeaCI7Y9Sv6FgaVSYBG-6" value="1" style="endArrow=open;html=1;endSize=12;startArrow=diamondThin;startSize=14;startFill=0;edgeStyle=orthogonalEdgeStyle;align=left;verticalAlign=bottom;rounded=0;" edge="1" parent="1" source="ITeaCI7Y9Sv6FgaVSYBG-5" target="ITeaCI7Y9Sv6FgaVSYBG-3">
          <mxGeometry x="-1" y="3" relative="1" as="geometry">
            <mxPoint x="640" y="350" as="sourcePoint" />
            <mxPoint x="800" y="350" as="targetPoint" />
            <Array as="points">
              <mxPoint x="720" y="330" />
              <mxPoint x="415" y="330" />
            </Array>
          </mxGeometry>
        </mxCell>
        <mxCell id="ITeaCI7Y9Sv6FgaVSYBG-8" value="内网访问，经由内网DNS解析" style="edgeLabel;html=1;align=center;verticalAlign=middle;resizable=0;points=[];" vertex="1" connectable="0" parent="ITeaCI7Y9Sv6FgaVSYBG-6">
          <mxGeometry x="-0.5604" y="-4" relative="1" as="geometry">
            <mxPoint as="offset" />
          </mxGeometry>
        </mxCell>
        <mxCell id="ITeaCI7Y9Sv6FgaVSYBG-7" value="" style="endArrow=block;startArrow=block;endFill=1;startFill=1;html=1;rounded=0;exitX=0.5;exitY=1;exitDx=0;exitDy=0;entryX=0.5;entryY=0;entryDx=0;entryDy=0;" edge="1" parent="1" source="ITeaCI7Y9Sv6FgaVSYBG-3" target="ITeaCI7Y9Sv6FgaVSYBG-1">
          <mxGeometry width="160" relative="1" as="geometry">
            <mxPoint x="450" y="600" as="sourcePoint" />
            <mxPoint x="610" y="600" as="targetPoint" />
          </mxGeometry>
        </mxCell>
        <mxCell id="ITeaCI7Y9Sv6FgaVSYBG-11" value="" style="endArrow=block;startArrow=block;endFill=1;startFill=1;html=1;rounded=0;exitX=0.462;exitY=1.013;exitDx=0;exitDy=0;exitPerimeter=0;entryX=0;entryY=0.5;entryDx=0;entryDy=0;fillColor=#1ba1e2;strokeColor=#006EAF;" edge="1" parent="1" source="ITeaCI7Y9Sv6FgaVSYBG-2" target="ITeaCI7Y9Sv6FgaVSYBG-3">
          <mxGeometry width="160" relative="1" as="geometry">
            <mxPoint x="130" y="330" as="sourcePoint" />
            <mxPoint x="290" y="330" as="targetPoint" />
            <Array as="points">
              <mxPoint x="170" y="380" />
            </Array>
          </mxGeometry>
        </mxCell>
        <mxCell id="ITeaCI7Y9Sv6FgaVSYBG-13" value="将外网27机器的88端口映射到内网11的80端口" style="edgeLabel;html=1;align=center;verticalAlign=middle;resizable=0;points=[];" vertex="1" connectable="0" parent="ITeaCI7Y9Sv6FgaVSYBG-11">
          <mxGeometry x="-0.0861" relative="1" as="geometry">
            <mxPoint as="offset" />
          </mxGeometry>
        </mxCell>
        <mxCell id="ITeaCI7Y9Sv6FgaVSYBG-14" value="" style="endArrow=block;startArrow=block;endFill=1;startFill=1;html=1;rounded=0;entryX=0;entryY=0.5;entryDx=0;entryDy=0;exitX=1;exitY=0.5;exitDx=0;exitDy=0;fillColor=#0050ef;strokeColor=#001DBC;" edge="1" parent="1" source="ITeaCI7Y9Sv6FgaVSYBG-2" target="ITeaCI7Y9Sv6FgaVSYBG-5">
          <mxGeometry width="160" relative="1" as="geometry">
            <mxPoint x="480" y="150" as="sourcePoint" />
            <mxPoint x="640" y="150" as="targetPoint" />
            <Array as="points">
              <mxPoint x="660" y="280" />
            </Array>
          </mxGeometry>
        </mxCell>
        <mxCell id="ITeaCI7Y9Sv6FgaVSYBG-16" value="47.119" style="shape=ext;double=1;rounded=0;whiteSpace=wrap;html=1;" vertex="1" parent="1">
          <mxGeometry x="440" y="120" width="170" height="80" as="geometry" />
        </mxCell>
        <mxCell id="ITeaCI7Y9Sv6FgaVSYBG-17" value="Nginx" style="shape=ext;double=1;rounded=1;whiteSpace=wrap;html=1;" vertex="1" parent="1">
          <mxGeometry x="475" y="135" width="80" height="40" as="geometry" />
        </mxCell>
        <mxCell id="ITeaCI7Y9Sv6FgaVSYBG-18" value="1" style="endArrow=open;html=1;endSize=12;startArrow=diamondThin;startSize=14;startFill=0;edgeStyle=orthogonalEdgeStyle;align=left;verticalAlign=bottom;rounded=0;entryX=1;entryY=0.5;entryDx=0;entryDy=0;exitX=0.5;exitY=0;exitDx=0;exitDy=0;fillColor=#e51400;strokeColor=#B20000;" edge="1" parent="1" source="ITeaCI7Y9Sv6FgaVSYBG-5" target="ITeaCI7Y9Sv6FgaVSYBG-19">
          <mxGeometry x="-1" y="3" relative="1" as="geometry">
            <mxPoint x="720" y="200" as="sourcePoint" />
            <mxPoint x="880" y="200" as="targetPoint" />
            <Array as="points">
              <mxPoint x="710" y="30" />
            </Array>
          </mxGeometry>
        </mxCell>
        <mxCell id="ITeaCI7Y9Sv6FgaVSYBG-22" value="直接访问d.lanchagroup.cn" style="edgeLabel;html=1;align=center;verticalAlign=middle;resizable=0;points=[];" vertex="1" connectable="0" parent="ITeaCI7Y9Sv6FgaVSYBG-18">
          <mxGeometry x="-0.3396" y="-4" relative="1" as="geometry">
            <mxPoint as="offset" />
          </mxGeometry>
        </mxCell>
        <mxCell id="ITeaCI7Y9Sv6FgaVSYBG-19" value="公网DNS接服务" style="rounded=1;whiteSpace=wrap;html=1;" vertex="1" parent="1">
          <mxGeometry x="277" width="120" height="60" as="geometry" />
        </mxCell>
        <mxCell id="ITeaCI7Y9Sv6FgaVSYBG-21" value="将d.lanchagroup.cn解析到47.119" style="endArrow=block;startArrow=block;endFill=1;startFill=1;html=1;rounded=0;exitX=0.5;exitY=1;exitDx=0;exitDy=0;fillColor=#e51400;strokeColor=#B20000;" edge="1" parent="1" source="ITeaCI7Y9Sv6FgaVSYBG-19" target="ITeaCI7Y9Sv6FgaVSYBG-17">
          <mxGeometry width="160" relative="1" as="geometry">
            <mxPoint x="220" y="69.5" as="sourcePoint" />
            <mxPoint x="380" y="69.5" as="targetPoint" />
          </mxGeometry>
        </mxCell>
        <mxCell id="ITeaCI7Y9Sv6FgaVSYBG-23" value="j将58的88服务器做负载均衡" style="endArrow=block;startArrow=block;endFill=1;startFill=1;html=1;rounded=0;entryX=0.5;entryY=1;entryDx=0;entryDy=0;exitX=0.5;exitY=0;exitDx=0;exitDy=0;fillColor=#e51400;strokeColor=#B20000;" edge="1" parent="1" source="ITeaCI7Y9Sv6FgaVSYBG-2" target="ITeaCI7Y9Sv6FgaVSYBG-17">
          <mxGeometry width="160" relative="1" as="geometry">
            <mxPoint x="220" y="200" as="sourcePoint" />
            <mxPoint x="380" y="200" as="targetPoint" />
          </mxGeometry>
        </mxCell>
      </root>
    </mxGraphModel>
  </diagram>
</mxfile>
